<svg xmlns="http://www.w3.org/2000/svg" xmlns:xlink="http://www.w3.org/1999/xlink" width="500" zoomAndPan="magnify" viewBox="0 0 375 374.999991" height="500" preserveAspectRatio="xMidYMid meet" version="1.0"><defs><g/><clipPath id="00010b1e49"><path d="M 116.714844 62 L 262 62 L 262 111 L 116.714844 111 Z M 116.714844 62 " clip-rule="nonzero"/></clipPath></defs><g fill="#292929" fill-opacity="1"><g transform="translate(74.035548, 156.199377)"><g><path d="M 11.34375 0 L 0 -46 L 18.453125 -46 L 23.125 -26.5625 L 26.125 -46 L 39.4375 -46 L 42.4375 -26.5625 L 47.09375 -46 L 65.25 -46 L 54.21875 0 L 36.1875 0 L 32.8125 -22.453125 L 29.375 0 Z M 11.34375 0 "/></g></g></g><g fill="#292929" fill-opacity="1"><g transform="translate(82.756537, 247.492073)"><g><path d="M 23.09375 0 L 0 -89.078125 L 26.75 -89.078125 L 35.84375 -44.5 L 44.859375 -89.078125 L 66.796875 -89.078125 L 75.890625 -44.5 L 84.890625 -89.078125 L 111.640625 -89.078125 L 88.546875 0 L 63.140625 0 L 55.828125 -36.203125 L 48.515625 0 Z M 23.09375 0 "/></g></g></g><g clip-path="url(#00010b1e49)"><path fill="#383838" d="M 259.925781 105.746094 C 252.929688 99.089844 245.929688 90.210938 243.703125 93.066406 C 241.476562 95.601562 229.390625 81.65625 225.890625 79.753906 C 222.707031 77.851562 219.527344 82.921875 217.621094 83.875 C 215.394531 84.824219 203.941406 71.828125 197.898438 65.171875 C 191.855469 58.832031 190.265625 64.855469 182.3125 72.460938 C 174.359375 80.070312 174.359375 81.972656 171.496094 77.851562 C 168.316406 73.730469 167.679688 67.707031 163.863281 73.097656 C 159.730469 78.167969 143.824219 95.601562 140.644531 92.75 C 137.460938 89.894531 136.507812 92.75 133.007812 95.917969 C 129.828125 99.089844 130.460938 99.089844 128.238281 97.820312 C 126.011719 96.550781 116.785156 110.816406 116.785156 110.816406 C 116.785156 110.816406 127.601562 99.40625 128.238281 100.988281 C 128.871094 102.890625 132.691406 100.671875 135.871094 96.550781 C 139.054688 92.75 139.054688 95.601562 139.371094 97.820312 C 139.6875 100.355469 148.914062 92.429688 146.050781 96.867188 C 143.1875 100.988281 143.824219 102.257812 148.914062 95.601562 C 154.320312 89.261719 156.546875 83.875 154.957031 87.992188 C 153.683594 92.429688 151.140625 96.234375 155.59375 90.847656 C 160.046875 85.773438 165.453125 75.316406 167.363281 78.167969 C 169.585938 81.019531 170.226562 84.507812 173.726562 83.554688 C 176.90625 82.921875 180.402344 79.753906 185.175781 75.949219 C 189.628906 72.144531 185.8125 77.214844 182.628906 80.703125 C 179.449219 84.191406 188.355469 76.582031 191.21875 73.730469 C 194.082031 70.878906 197.898438 68.660156 200.761719 71.195312 C 203.625 73.730469 210.304688 82.605469 213.804688 85.140625 C 217.304688 87.992188 219.847656 91.164062 223.664062 93.699219 C 227.480469 96.550781 237.023438 105.109375 233.84375 100.988281 C 230.660156 97.1875 225.574219 92.429688 224.9375 89.894531 C 224.617188 87.675781 233.207031 94.332031 232.253906 93.066406 C 231.300781 91.796875 225.890625 86.410156 226.207031 84.191406 C 226.527344 81.65625 228.753906 84.507812 230.980469 86.09375 C 233.207031 87.675781 234.160156 89.894531 236.703125 92.75 C 239.25 95.285156 241.160156 96.550781 247.203125 101.304688 C 253.566406 106.0625 251.019531 103.207031 248.15625 99.40625 C 244.976562 95.601562 244.976562 94.015625 246.566406 95.285156 C 248.476562 96.550781 266.605469 112.082031 259.925781 105.746094 Z M 259.925781 105.746094 " fill-opacity="1" fill-rule="evenodd"/></g><g fill="#292929" fill-opacity="1"><g transform="translate(129.616256, 156.199377)"><g><path d="M 0.609375 -12.515625 C 0.609375 -14.023438 0.84375 -15.523438 1.3125 -17.015625 C 1.789062 -18.503906 2.550781 -19.863281 3.59375 -21.09375 C 4.632812 -22.320312 6.03125 -23.300781 7.78125 -24.03125 C 9.539062 -24.769531 11.710938 -25.140625 14.296875 -25.140625 L 23.859375 -25.140625 C 23.859375 -26.160156 23.242188 -26.820312 22.015625 -27.125 C 20.785156 -27.4375 18.945312 -27.59375 16.5 -27.59375 L 4.421875 -27.59375 L 8.890625 -46 L 23.859375 -46 C 27.492188 -46 30.679688 -45.445312 33.421875 -44.34375 C 36.160156 -43.238281 38.296875 -41.5 39.828125 -39.125 C 41.359375 -36.757812 42.125 -33.632812 42.125 -29.75 L 42.125 0 L 13.546875 0 C 10.359375 0 7.8125 -0.613281 5.90625 -1.84375 C 4.007812 -3.070312 2.648438 -4.644531 1.828125 -6.5625 C 1.015625 -8.476562 0.609375 -10.460938 0.609375 -12.515625 Z M 19.5625 -16.921875 C 19.5625 -16.347656 19.773438 -15.945312 20.203125 -15.71875 C 20.640625 -15.5 21.125 -15.390625 21.65625 -15.390625 L 23.859375 -15.390625 L 23.859375 -18.515625 L 21.65625 -18.515625 C 21.082031 -18.515625 20.585938 -18.390625 20.171875 -18.140625 C 19.765625 -17.898438 19.5625 -17.492188 19.5625 -16.921875 Z M 19.5625 -16.921875 "/></g></g></g><g fill="#292929" fill-opacity="1"><g transform="translate(166.65544, 156.199377)"><g><path d="M 0.921875 -46 L 22.015625 -46 C 25.367188 -46 28.472656 -45.363281 31.328125 -44.09375 C 34.191406 -42.820312 36.492188 -40.890625 38.234375 -38.296875 C 39.972656 -35.703125 40.84375 -32.378906 40.84375 -28.328125 L 40.84375 0 L 22.453125 0 L 22.453125 -24.046875 C 22.453125 -25.109375 22.378906 -25.984375 22.234375 -26.671875 C 22.085938 -27.367188 21.546875 -27.71875 20.609375 -27.71875 L 19.3125 -27.71875 L 19.3125 0 L 0.921875 0 Z M 0.921875 -46 "/></g></g></g><g fill="#292929" fill-opacity="1"><g transform="translate(202.406809, 156.199377)"><g><path d="M 23.609375 0 C 20.503906 0 17.570312 -0.519531 14.8125 -1.5625 C 12.050781 -2.601562 9.640625 -4.113281 7.578125 -6.09375 C 5.515625 -8.082031 3.890625 -10.492188 2.703125 -13.328125 C 1.515625 -16.171875 0.921875 -19.394531 0.921875 -23 C 0.921875 -27.738281 1.769531 -31.828125 3.46875 -35.265625 C 5.164062 -38.703125 7.695312 -41.347656 11.0625 -43.203125 C 14.4375 -45.066406 18.617188 -46 23.609375 -46 L 23.609375 -61.328125 L 42.015625 -61.328125 L 42.015625 0 Z M 23.609375 -28.21875 C 22.796875 -28.21875 22.101562 -27.957031 21.53125 -27.4375 C 20.957031 -26.925781 20.515625 -26.28125 20.203125 -25.5 C 19.898438 -24.726562 19.75 -23.976562 19.75 -23.25 C 19.75 -21.851562 20.125 -20.664062 20.875 -19.6875 C 21.632812 -18.707031 22.546875 -18.21875 23.609375 -18.21875 Z M 23.609375 -28.21875 "/></g></g></g><g fill="#292929" fill-opacity="1"><g transform="translate(239.323341, 156.199377)"><g><path d="M 0.609375 -23 C 0.609375 -26.476562 1.179688 -29.675781 2.328125 -32.59375 C 3.472656 -35.519531 5.117188 -38.046875 7.265625 -40.171875 C 9.410156 -42.296875 11.941406 -43.953125 14.859375 -45.140625 C 17.785156 -46.328125 21.03125 -46.921875 24.59375 -46.921875 C 28.882812 -46.921875 32.582031 -46.222656 35.6875 -44.828125 C 38.800781 -43.441406 41.285156 -41.550781 43.140625 -39.15625 C 45.003906 -36.769531 46.222656 -34.03125 46.796875 -30.9375 C 47.367188 -27.851562 47.242188 -24.59375 46.421875 -21.15625 L 19.078125 -21.15625 C 19.078125 -20.21875 19.578125 -19.523438 20.578125 -19.078125 C 21.578125 -18.628906 22.894531 -18.40625 24.53125 -18.40625 C 24.8125 -18.40625 25.515625 -18.40625 26.640625 -18.40625 C 27.765625 -18.40625 29.125 -18.40625 30.71875 -18.40625 C 32.320312 -18.40625 33.976562 -18.40625 35.6875 -18.40625 C 37.40625 -18.40625 39 -18.40625 40.46875 -18.40625 C 41.945312 -18.40625 43.15625 -18.40625 44.09375 -18.40625 C 45.03125 -18.40625 45.5 -18.40625 45.5 -18.40625 L 45.5 0 C 45.5 0 43.738281 0 40.21875 0 C 36.707031 0 31.476562 0 24.53125 0 C 19.90625 0 15.796875 -0.914062 12.203125 -2.75 C 8.609375 -4.59375 5.773438 -7.242188 3.703125 -10.703125 C 1.640625 -14.160156 0.609375 -18.257812 0.609375 -23 Z M 24.53125 -30.84375 C 23.21875 -30.84375 22.0625 -30.554688 21.0625 -29.984375 C 20.0625 -29.410156 19.316406 -28.613281 18.828125 -27.59375 L 30.296875 -27.59375 C 29.765625 -28.613281 29 -29.410156 28 -29.984375 C 27 -30.554688 25.84375 -30.84375 24.53125 -30.84375 Z M 24.53125 -30.84375 "/></g></g></g><g fill="#292929" fill-opacity="1"><g transform="translate(281.0845, 156.199377)"><g><path d="M 0.921875 0 L 0.921875 -28.328125 C 0.921875 -32.378906 1.789062 -35.703125 3.53125 -38.296875 C 5.269531 -40.890625 7.566406 -42.820312 10.421875 -44.09375 C 13.285156 -45.363281 16.394531 -46 19.75 -46 L 26.921875 -46 L 26.921875 -27.71875 L 21.15625 -27.71875 C 20.257812 -27.71875 19.726562 -27.367188 19.5625 -26.671875 C 19.394531 -25.984375 19.3125 -25.109375 19.3125 -24.046875 L 19.3125 0 Z M 0.921875 0 "/></g></g></g><g fill="#292929" fill-opacity="1"><g transform="translate(175.541273, 247.492073)"><g><path d="M 26.9375 0 L 0 0 L 23 -89.078125 L 49.9375 -89.078125 L 73.03125 0 L 46.109375 0 L 44.234375 -8.46875 L 28.71875 -8.46875 Z M 36.46875 -44.59375 L 33.53125 -30.765625 L 39.5 -30.765625 Z M 36.46875 -44.59375 "/></g></g></g><g fill="#292929" fill-opacity="1"><g transform="translate(229.196795, 247.492073)"><g><path d="M 36.203125 -61.703125 L 45.125 -89.078125 L 72.5 -89.078125 L 49.578125 -31.5625 L 49.578125 0 L 22.828125 0 L 22.828125 -31.5625 L 0 -89.078125 L 27.375 -89.078125 Z M 36.203125 -61.703125 "/></g></g></g><g fill="#292929" fill-opacity="1"><g transform="translate(110.200603, 346.92273)"><g><path d="M 0.1875 -3.671875 C 0.1875 -4.117188 0.253906 -4.5625 0.390625 -5 C 0.523438 -5.4375 0.742188 -5.832031 1.046875 -6.1875 C 1.359375 -6.550781 1.769531 -6.835938 2.28125 -7.046875 C 2.800781 -7.265625 3.4375 -7.375 4.1875 -7.375 L 7 -7.375 C 7 -7.675781 6.816406 -7.867188 6.453125 -7.953125 C 6.097656 -8.046875 5.5625 -8.09375 4.84375 -8.09375 L 1.296875 -8.09375 L 2.609375 -13.5 L 7 -13.5 C 8.070312 -13.5 9.007812 -13.335938 9.8125 -13.015625 C 10.613281 -12.691406 11.238281 -12.179688 11.6875 -11.484375 C 12.132812 -10.785156 12.359375 -9.867188 12.359375 -8.734375 L 12.359375 0 L 3.984375 0 C 3.046875 0 2.296875 -0.175781 1.734375 -0.53125 C 1.179688 -0.894531 0.785156 -1.359375 0.546875 -1.921875 C 0.304688 -2.484375 0.1875 -3.066406 0.1875 -3.671875 Z M 5.734375 -4.96875 C 5.734375 -4.800781 5.796875 -4.679688 5.921875 -4.609375 C 6.054688 -4.546875 6.203125 -4.515625 6.359375 -4.515625 L 7 -4.515625 L 7 -5.4375 L 6.359375 -5.4375 C 6.191406 -5.4375 6.046875 -5.398438 5.921875 -5.328125 C 5.796875 -5.253906 5.734375 -5.132812 5.734375 -4.96875 Z M 5.734375 -4.96875 "/></g></g></g><g fill="#292929" fill-opacity="1"><g transform="translate(121.072539, 346.92273)"><g><path d="M 6.9375 0 C 6.019531 0 5.15625 -0.148438 4.34375 -0.453125 C 3.53125 -0.765625 2.820312 -1.207031 2.21875 -1.78125 C 1.613281 -2.363281 1.132812 -3.070312 0.78125 -3.90625 C 0.4375 -4.75 0.265625 -5.695312 0.265625 -6.75 C 0.265625 -8.144531 0.515625 -9.34375 1.015625 -10.34375 C 1.515625 -11.351562 2.257812 -12.128906 3.25 -12.671875 C 4.238281 -13.222656 5.46875 -13.5 6.9375 -13.5 L 6.9375 -18 L 12.328125 -18 L 12.328125 0 Z M 6.9375 -8.28125 C 6.6875 -8.28125 6.476562 -8.203125 6.3125 -8.046875 C 6.144531 -7.898438 6.015625 -7.710938 5.921875 -7.484375 C 5.835938 -7.253906 5.796875 -7.035156 5.796875 -6.828125 C 5.796875 -6.410156 5.90625 -6.054688 6.125 -5.765625 C 6.351562 -5.484375 6.625 -5.34375 6.9375 -5.34375 Z M 6.9375 -8.28125 "/></g></g></g><g fill="#292929" fill-opacity="1"><g transform="translate(131.908484, 346.92273)"><g><path d="M 0 -13.5 L 5.828125 -13.5 L 6.828125 -5.8125 L 7.796875 -13.5 L 13.625 -13.5 L 10.15625 0 L 3.46875 0 Z M 0 -13.5 "/></g></g></g><g fill="#292929" fill-opacity="1"><g transform="translate(143.770425, 346.92273)"><g><path d="M 0.1875 -6.75 C 0.1875 -7.769531 0.351562 -8.707031 0.6875 -9.5625 C 1.019531 -10.425781 1.5 -11.164062 2.125 -11.78125 C 2.757812 -12.40625 3.503906 -12.890625 4.359375 -13.234375 C 5.222656 -13.585938 6.175781 -13.765625 7.21875 -13.765625 C 8.476562 -13.765625 9.5625 -13.5625 10.46875 -13.15625 C 11.382812 -12.75 12.113281 -12.191406 12.65625 -11.484375 C 13.207031 -10.785156 13.566406 -9.984375 13.734375 -9.078125 C 13.898438 -8.171875 13.863281 -7.210938 13.625 -6.203125 L 5.59375 -6.203125 C 5.59375 -5.929688 5.738281 -5.726562 6.03125 -5.59375 C 6.332031 -5.46875 6.722656 -5.40625 7.203125 -5.40625 C 7.285156 -5.40625 7.488281 -5.40625 7.8125 -5.40625 C 8.144531 -5.40625 8.546875 -5.40625 9.015625 -5.40625 C 9.484375 -5.40625 9.96875 -5.40625 10.46875 -5.40625 C 10.976562 -5.40625 11.445312 -5.40625 11.875 -5.40625 C 12.3125 -5.40625 12.664062 -5.40625 12.9375 -5.40625 C 13.21875 -5.40625 13.359375 -5.40625 13.359375 -5.40625 L 13.359375 0 C 13.359375 0 12.84375 0 11.8125 0 C 10.78125 0 9.242188 0 7.203125 0 C 5.847656 0 4.640625 -0.269531 3.578125 -0.8125 C 2.523438 -1.351562 1.695312 -2.128906 1.09375 -3.140625 C 0.488281 -4.148438 0.1875 -5.351562 0.1875 -6.75 Z M 7.203125 -9.046875 C 6.816406 -9.046875 6.472656 -8.960938 6.171875 -8.796875 C 5.878906 -8.628906 5.664062 -8.394531 5.53125 -8.09375 L 8.890625 -8.09375 C 8.734375 -8.394531 8.507812 -8.628906 8.21875 -8.796875 C 7.925781 -8.960938 7.585938 -9.046875 7.203125 -9.046875 Z M 7.203125 -9.046875 "/></g></g></g><g fill="#292929" fill-opacity="1"><g transform="translate(156.028357, 346.92273)"><g><path d="M 0.265625 -13.5 L 6.46875 -13.5 C 7.445312 -13.5 8.351562 -13.3125 9.1875 -12.9375 C 10.03125 -12.570312 10.707031 -12.003906 11.21875 -11.234375 C 11.726562 -10.472656 11.984375 -9.5 11.984375 -8.3125 L 11.984375 0 L 6.59375 0 L 6.59375 -7.0625 C 6.59375 -7.375 6.570312 -7.628906 6.53125 -7.828125 C 6.488281 -8.035156 6.328125 -8.140625 6.046875 -8.140625 L 5.671875 -8.140625 L 5.671875 0 L 0.265625 0 Z M 0.265625 -13.5 "/></g></g></g><g fill="#292929" fill-opacity="1"><g transform="translate(166.522296, 346.92273)"><g><path d="M 0.265625 -16.203125 L 5.609375 -16.203125 L 5.609375 -13.5 L 7.421875 -13.5 L 7.421875 -8.09375 L 5.640625 -8.09375 L 5.640625 -6.265625 C 5.640625 -5.972656 5.726562 -5.75 5.90625 -5.59375 C 6.082031 -5.4375 6.289062 -5.359375 6.53125 -5.359375 L 7.390625 -5.34375 L 7.390625 0 L 5.796875 0 C 4.804688 0 3.890625 -0.179688 3.046875 -0.546875 C 2.210938 -0.910156 1.539062 -1.476562 1.03125 -2.25 C 0.519531 -3.019531 0.265625 -4 0.265625 -5.1875 Z M 0.265625 -16.203125 "/></g></g></g><g fill="#292929" fill-opacity="1"><g transform="translate(172.444253, 346.92273)"><g><path d="M 0.265625 -5.1875 L 0.265625 -13.5 L 5.671875 -13.5 L 5.671875 -6.4375 C 5.671875 -6.144531 5.691406 -5.890625 5.734375 -5.671875 C 5.785156 -5.460938 5.941406 -5.359375 6.203125 -5.359375 L 6.59375 -5.359375 L 6.59375 -13.5 L 11.984375 -13.5 L 11.984375 0 L 5.796875 0 C 4.804688 0 3.890625 -0.179688 3.046875 -0.546875 C 2.210938 -0.910156 1.539062 -1.476562 1.03125 -2.25 C 0.519531 -3.019531 0.265625 -4 0.265625 -5.1875 Z M 0.265625 -5.1875 "/></g></g></g><g fill="#292929" fill-opacity="1"><g transform="translate(182.938193, 346.92273)"><g><path d="M 0.265625 0 L 0.265625 -8.3125 C 0.265625 -9.5 0.519531 -10.472656 1.03125 -11.234375 C 1.539062 -12.003906 2.210938 -12.570312 3.046875 -12.9375 C 3.890625 -13.3125 4.804688 -13.5 5.796875 -13.5 L 7.90625 -13.5 L 7.90625 -8.140625 L 6.203125 -8.140625 C 5.941406 -8.140625 5.785156 -8.035156 5.734375 -7.828125 C 5.691406 -7.628906 5.671875 -7.375 5.671875 -7.0625 L 5.671875 0 Z M 0.265625 0 "/></g></g></g><g fill="#292929" fill-opacity="1"><g transform="translate(189.346146, 346.92273)"><g><path d="M 0.1875 -6.75 C 0.1875 -7.769531 0.351562 -8.707031 0.6875 -9.5625 C 1.019531 -10.425781 1.5 -11.164062 2.125 -11.78125 C 2.757812 -12.40625 3.503906 -12.890625 4.359375 -13.234375 C 5.222656 -13.585938 6.175781 -13.765625 7.21875 -13.765625 C 8.476562 -13.765625 9.5625 -13.5625 10.46875 -13.15625 C 11.382812 -12.75 12.113281 -12.191406 12.65625 -11.484375 C 13.207031 -10.785156 13.566406 -9.984375 13.734375 -9.078125 C 13.898438 -8.171875 13.863281 -7.210938 13.625 -6.203125 L 5.59375 -6.203125 C 5.59375 -5.929688 5.738281 -5.726562 6.03125 -5.59375 C 6.332031 -5.46875 6.722656 -5.40625 7.203125 -5.40625 C 7.285156 -5.40625 7.488281 -5.40625 7.8125 -5.40625 C 8.144531 -5.40625 8.546875 -5.40625 9.015625 -5.40625 C 9.484375 -5.40625 9.96875 -5.40625 10.46875 -5.40625 C 10.976562 -5.40625 11.445312 -5.40625 11.875 -5.40625 C 12.3125 -5.40625 12.664062 -5.40625 12.9375 -5.40625 C 13.21875 -5.40625 13.359375 -5.40625 13.359375 -5.40625 L 13.359375 0 C 13.359375 0 12.84375 0 11.8125 0 C 10.78125 0 9.242188 0 7.203125 0 C 5.847656 0 4.640625 -0.269531 3.578125 -0.8125 C 2.523438 -1.351562 1.695312 -2.128906 1.09375 -3.140625 C 0.488281 -4.148438 0.1875 -5.351562 0.1875 -6.75 Z M 7.203125 -9.046875 C 6.816406 -9.046875 6.472656 -8.960938 6.171875 -8.796875 C 5.878906 -8.628906 5.664062 -8.394531 5.53125 -8.09375 L 8.890625 -8.09375 C 8.734375 -8.394531 8.507812 -8.628906 8.21875 -8.796875 C 7.925781 -8.960938 7.585938 -9.046875 7.203125 -9.046875 Z M 7.203125 -9.046875 "/></g></g></g><g fill="#292929" fill-opacity="1"><g transform="translate(201.604077, 346.92273)"><g/></g></g><g fill="#292929" fill-opacity="1"><g transform="translate(205.600039, 346.92273)"><g><path d="M 0.1875 -3.671875 C 0.1875 -4.117188 0.253906 -4.5625 0.390625 -5 C 0.523438 -5.4375 0.742188 -5.832031 1.046875 -6.1875 C 1.359375 -6.550781 1.769531 -6.835938 2.28125 -7.046875 C 2.800781 -7.265625 3.4375 -7.375 4.1875 -7.375 L 7 -7.375 C 7 -7.675781 6.816406 -7.867188 6.453125 -7.953125 C 6.097656 -8.046875 5.5625 -8.09375 4.84375 -8.09375 L 1.296875 -8.09375 L 2.609375 -13.5 L 7 -13.5 C 8.070312 -13.5 9.007812 -13.335938 9.8125 -13.015625 C 10.613281 -12.691406 11.238281 -12.179688 11.6875 -11.484375 C 12.132812 -10.785156 12.359375 -9.867188 12.359375 -8.734375 L 12.359375 0 L 3.984375 0 C 3.046875 0 2.296875 -0.175781 1.734375 -0.53125 C 1.179688 -0.894531 0.785156 -1.359375 0.546875 -1.921875 C 0.304688 -2.484375 0.1875 -3.066406 0.1875 -3.671875 Z M 5.734375 -4.96875 C 5.734375 -4.800781 5.796875 -4.679688 5.921875 -4.609375 C 6.054688 -4.546875 6.203125 -4.515625 6.359375 -4.515625 L 7 -4.515625 L 7 -5.4375 L 6.359375 -5.4375 C 6.191406 -5.4375 6.046875 -5.398438 5.921875 -5.328125 C 5.796875 -5.253906 5.734375 -5.132812 5.734375 -4.96875 Z M 5.734375 -4.96875 "/></g></g></g><g fill="#292929" fill-opacity="1"><g transform="translate(216.471977, 346.92273)"><g><path d="M 3.328125 0 L 0 -13.5 L 5.421875 -13.5 L 6.78125 -7.796875 L 7.671875 -13.5 L 11.578125 -13.5 L 12.453125 -7.796875 L 13.828125 -13.5 L 19.15625 -13.5 L 15.90625 0 L 10.625 0 L 9.625 -6.59375 L 8.625 0 Z M 3.328125 0 "/></g></g></g><g fill="#292929" fill-opacity="1"><g transform="translate(233.859889, 346.92273)"><g><path d="M 0.1875 -3.671875 C 0.1875 -4.117188 0.253906 -4.5625 0.390625 -5 C 0.523438 -5.4375 0.742188 -5.832031 1.046875 -6.1875 C 1.359375 -6.550781 1.769531 -6.835938 2.28125 -7.046875 C 2.800781 -7.265625 3.4375 -7.375 4.1875 -7.375 L 7 -7.375 C 7 -7.675781 6.816406 -7.867188 6.453125 -7.953125 C 6.097656 -8.046875 5.5625 -8.09375 4.84375 -8.09375 L 1.296875 -8.09375 L 2.609375 -13.5 L 7 -13.5 C 8.070312 -13.5 9.007812 -13.335938 9.8125 -13.015625 C 10.613281 -12.691406 11.238281 -12.179688 11.6875 -11.484375 C 12.132812 -10.785156 12.359375 -9.867188 12.359375 -8.734375 L 12.359375 0 L 3.984375 0 C 3.046875 0 2.296875 -0.175781 1.734375 -0.53125 C 1.179688 -0.894531 0.785156 -1.359375 0.546875 -1.921875 C 0.304688 -2.484375 0.1875 -3.066406 0.1875 -3.671875 Z M 5.734375 -4.96875 C 5.734375 -4.800781 5.796875 -4.679688 5.921875 -4.609375 C 6.054688 -4.546875 6.203125 -4.515625 6.359375 -4.515625 L 7 -4.515625 L 7 -5.4375 L 6.359375 -5.4375 C 6.191406 -5.4375 6.046875 -5.398438 5.921875 -5.328125 C 5.796875 -5.253906 5.734375 -5.132812 5.734375 -4.96875 Z M 5.734375 -4.96875 "/></g></g></g><g fill="#292929" fill-opacity="1"><g transform="translate(244.731821, 346.92273)"><g><path d="M 5.671875 0 L 0.265625 0 L 0.265625 -13.5 L 5.671875 -13.5 Z M 5.671875 -14.359375 L 0.265625 -14.359375 L 0.265625 -19.765625 L 5.671875 -19.765625 Z M 5.671875 -14.359375 "/></g></g></g><g fill="#292929" fill-opacity="1"><g transform="translate(248.907782, 346.92273)"><g><path d="M 0.265625 -16.203125 L 5.609375 -16.203125 L 5.609375 -13.5 L 7.421875 -13.5 L 7.421875 -8.09375 L 5.640625 -8.09375 L 5.640625 -6.265625 C 5.640625 -5.972656 5.726562 -5.75 5.90625 -5.59375 C 6.082031 -5.4375 6.289062 -5.359375 6.53125 -5.359375 L 7.390625 -5.34375 L 7.390625 0 L 5.796875 0 C 4.804688 0 3.890625 -0.179688 3.046875 -0.546875 C 2.210938 -0.910156 1.539062 -1.476562 1.03125 -2.25 C 0.519531 -3.019531 0.265625 -4 0.265625 -5.1875 Z M 0.265625 -16.203125 "/></g></g></g><g fill="#292929" fill-opacity="1"><g transform="translate(254.829733, 346.92273)"><g><path d="M 6.0625 0 L 0 0 L 0 -5.40625 L 1.703125 -5.40625 C 2.066406 -5.40625 2.382812 -5.425781 2.65625 -5.46875 C 2.9375 -5.507812 3.078125 -5.660156 3.078125 -5.921875 C 3.078125 -6.085938 2.972656 -6.269531 2.765625 -6.46875 C 2.554688 -6.675781 2.300781 -6.914062 2 -7.1875 C 1.695312 -7.457031 1.390625 -7.757812 1.078125 -8.09375 C 0.773438 -8.425781 0.519531 -8.796875 0.3125 -9.203125 C 0.101562 -9.609375 0 -10.054688 0 -10.546875 C 0 -11.191406 0.15625 -11.734375 0.46875 -12.171875 C 0.789062 -12.609375 1.207031 -12.9375 1.71875 -13.15625 C 2.238281 -13.382812 2.804688 -13.5 3.421875 -13.5 L 9.6875 -13.5 L 9.6875 -8.078125 L 8.8125 -8.078125 C 8.21875 -8.078125 7.800781 -8.054688 7.5625 -8.015625 C 7.332031 -7.984375 7.21875 -7.867188 7.21875 -7.671875 C 7.21875 -7.503906 7.316406 -7.320312 7.515625 -7.125 C 7.710938 -6.9375 7.953125 -6.722656 8.234375 -6.484375 C 8.523438 -6.253906 8.816406 -5.984375 9.109375 -5.671875 C 9.398438 -5.367188 9.644531 -5.03125 9.84375 -4.65625 C 10.039062 -4.28125 10.140625 -3.84375 10.140625 -3.34375 C 10.140625 -2.707031 10.015625 -2.175781 9.765625 -1.75 C 9.523438 -1.320312 9.207031 -0.976562 8.8125 -0.71875 C 8.414062 -0.46875 7.976562 -0.285156 7.5 -0.171875 C 7.019531 -0.0546875 6.539062 0 6.0625 0 Z M 6.0625 0 "/></g></g></g><g fill="#292929" fill-opacity="1"><g transform="translate(263.289674, 346.92273)"><g><path d="M 5.671875 -5.4375 L 5.671875 -0.015625 L 0.265625 0.015625 L 0.265625 -5.4375 Z M 5.671875 -5.4375 "/></g></g></g></svg>