<svg xmlns="http://www.w3.org/2000/svg" xmlns:xlink="http://www.w3.org/1999/xlink" width="500" zoomAndPan="magnify" viewBox="0 0 375 374.999991" height="500" preserveAspectRatio="xMidYMid meet" version="1.0"><defs><g/></defs><g fill="#292929" fill-opacity="1"><g transform="translate(74.944819, 169.232326)"><g><path d="M 11.34375 0 L 0 -46 L 18.453125 -46 L 23.125 -26.5625 L 26.125 -46 L 39.4375 -46 L 42.4375 -26.5625 L 47.09375 -46 L 65.25 -46 L 54.21875 0 L 36.1875 0 L 32.8125 -22.453125 L 29.375 0 Z M 11.34375 0 "/></g></g></g><g fill="#292929" fill-opacity="1"><g transform="translate(81.857198, 260.525008)"><g><path d="M 23.09375 0 L 0 -89.078125 L 26.75 -89.078125 L 35.84375 -44.5 L 44.859375 -89.078125 L 66.796875 -89.078125 L 75.890625 -44.5 L 84.890625 -89.078125 L 111.640625 -89.078125 L 88.546875 0 L 63.140625 0 L 55.828125 -36.203125 L 48.515625 0 Z M 23.09375 0 "/></g></g></g><g fill="#292929" fill-opacity="1"><g transform="translate(130.525513, 169.232326)"><g><path d="M 0.609375 -12.515625 C 0.609375 -14.023438 0.84375 -15.523438 1.3125 -17.015625 C 1.789062 -18.503906 2.550781 -19.863281 3.59375 -21.09375 C 4.632812 -22.320312 6.03125 -23.300781 7.78125 -24.03125 C 9.539062 -24.769531 11.710938 -25.140625 14.296875 -25.140625 L 23.859375 -25.140625 C 23.859375 -26.160156 23.242188 -26.820312 22.015625 -27.125 C 20.785156 -27.4375 18.945312 -27.59375 16.5 -27.59375 L 4.421875 -27.59375 L 8.890625 -46 L 23.859375 -46 C 27.492188 -46 30.679688 -45.445312 33.421875 -44.34375 C 36.160156 -43.238281 38.296875 -41.5 39.828125 -39.125 C 41.359375 -36.757812 42.125 -33.632812 42.125 -29.75 L 42.125 0 L 13.546875 0 C 10.359375 0 7.8125 -0.613281 5.90625 -1.84375 C 4.007812 -3.070312 2.648438 -4.644531 1.828125 -6.5625 C 1.015625 -8.476562 0.609375 -10.460938 0.609375 -12.515625 Z M 19.5625 -16.921875 C 19.5625 -16.347656 19.773438 -15.945312 20.203125 -15.71875 C 20.640625 -15.5 21.125 -15.390625 21.65625 -15.390625 L 23.859375 -15.390625 L 23.859375 -18.515625 L 21.65625 -18.515625 C 21.082031 -18.515625 20.585938 -18.390625 20.171875 -18.140625 C 19.765625 -17.898438 19.5625 -17.492188 19.5625 -16.921875 Z M 19.5625 -16.921875 "/></g></g></g><g fill="#292929" fill-opacity="1"><g transform="translate(167.564697, 169.232326)"><g><path d="M 0.921875 -46 L 22.015625 -46 C 25.367188 -46 28.472656 -45.363281 31.328125 -44.09375 C 34.191406 -42.820312 36.492188 -40.890625 38.234375 -38.296875 C 39.972656 -35.703125 40.84375 -32.378906 40.84375 -28.328125 L 40.84375 0 L 22.453125 0 L 22.453125 -24.046875 C 22.453125 -25.109375 22.378906 -25.984375 22.234375 -26.671875 C 22.085938 -27.367188 21.546875 -27.71875 20.609375 -27.71875 L 19.3125 -27.71875 L 19.3125 0 L 0.921875 0 Z M 0.921875 -46 "/></g></g></g><g fill="#292929" fill-opacity="1"><g transform="translate(203.316066, 169.232326)"><g><path d="M 23.609375 0 C 20.503906 0 17.570312 -0.519531 14.8125 -1.5625 C 12.050781 -2.601562 9.640625 -4.113281 7.578125 -6.09375 C 5.515625 -8.082031 3.890625 -10.492188 2.703125 -13.328125 C 1.515625 -16.171875 0.921875 -19.394531 0.921875 -23 C 0.921875 -27.738281 1.769531 -31.828125 3.46875 -35.265625 C 5.164062 -38.703125 7.695312 -41.347656 11.0625 -43.203125 C 14.4375 -45.066406 18.617188 -46 23.609375 -46 L 23.609375 -61.328125 L 42.015625 -61.328125 L 42.015625 0 Z M 23.609375 -28.21875 C 22.796875 -28.21875 22.101562 -27.957031 21.53125 -27.4375 C 20.957031 -26.925781 20.515625 -26.28125 20.203125 -25.5 C 19.898438 -24.726562 19.75 -23.976562 19.75 -23.25 C 19.75 -21.851562 20.125 -20.664062 20.875 -19.6875 C 21.632812 -18.707031 22.546875 -18.21875 23.609375 -18.21875 Z M 23.609375 -28.21875 "/></g></g></g><g fill="#292929" fill-opacity="1"><g transform="translate(240.232598, 169.232326)"><g><path d="M 0.609375 -23 C 0.609375 -26.476562 1.179688 -29.675781 2.328125 -32.59375 C 3.472656 -35.519531 5.117188 -38.046875 7.265625 -40.171875 C 9.410156 -42.296875 11.941406 -43.953125 14.859375 -45.140625 C 17.785156 -46.328125 21.03125 -46.921875 24.59375 -46.921875 C 28.882812 -46.921875 32.582031 -46.222656 35.6875 -44.828125 C 38.800781 -43.441406 41.285156 -41.550781 43.140625 -39.15625 C 45.003906 -36.769531 46.222656 -34.03125 46.796875 -30.9375 C 47.367188 -27.851562 47.242188 -24.59375 46.421875 -21.15625 L 19.078125 -21.15625 C 19.078125 -20.21875 19.578125 -19.523438 20.578125 -19.078125 C 21.578125 -18.628906 22.894531 -18.40625 24.53125 -18.40625 C 24.8125 -18.40625 25.515625 -18.40625 26.640625 -18.40625 C 27.765625 -18.40625 29.125 -18.40625 30.71875 -18.40625 C 32.320312 -18.40625 33.976562 -18.40625 35.6875 -18.40625 C 37.40625 -18.40625 39 -18.40625 40.46875 -18.40625 C 41.945312 -18.40625 43.15625 -18.40625 44.09375 -18.40625 C 45.03125 -18.40625 45.5 -18.40625 45.5 -18.40625 L 45.5 0 C 45.5 0 43.738281 0 40.21875 0 C 36.707031 0 31.476562 0 24.53125 0 C 19.90625 0 15.796875 -0.914062 12.203125 -2.75 C 8.609375 -4.59375 5.773438 -7.242188 3.703125 -10.703125 C 1.640625 -14.160156 0.609375 -18.257812 0.609375 -23 Z M 24.53125 -30.84375 C 23.21875 -30.84375 22.0625 -30.554688 21.0625 -29.984375 C 20.0625 -29.410156 19.316406 -28.613281 18.828125 -27.59375 L 30.296875 -27.59375 C 29.765625 -28.613281 29 -29.410156 28 -29.984375 C 27 -30.554688 25.84375 -30.84375 24.53125 -30.84375 Z M 24.53125 -30.84375 "/></g></g></g><g fill="#292929" fill-opacity="1"><g transform="translate(281.993757, 169.232326)"><g><path d="M 0.921875 0 L 0.921875 -28.328125 C 0.921875 -32.378906 1.789062 -35.703125 3.53125 -38.296875 C 5.269531 -40.890625 7.566406 -42.820312 10.421875 -44.09375 C 13.285156 -45.363281 16.394531 -46 19.75 -46 L 26.921875 -46 L 26.921875 -27.71875 L 21.15625 -27.71875 C 20.257812 -27.71875 19.726562 -27.367188 19.5625 -26.671875 C 19.394531 -25.984375 19.3125 -25.109375 19.3125 -24.046875 L 19.3125 0 Z M 0.921875 0 "/></g></g></g><g fill="#292929" fill-opacity="1"><g transform="translate(174.641931, 260.525008)"><g><path d="M 26.9375 0 L 0 0 L 23 -89.078125 L 49.9375 -89.078125 L 73.03125 0 L 46.109375 0 L 44.234375 -8.46875 L 28.71875 -8.46875 Z M 36.46875 -44.59375 L 33.53125 -30.765625 L 39.5 -30.765625 Z M 36.46875 -44.59375 "/></g></g></g><g fill="#292929" fill-opacity="1"><g transform="translate(229.201763, 260.525008)"><g><path d="M 36.203125 -61.703125 L 45.125 -89.078125 L 72.5 -89.078125 L 49.578125 -31.5625 L 49.578125 0 L 22.828125 0 L 22.828125 -31.5625 L 0 -89.078125 L 27.375 -89.078125 Z M 36.203125 -61.703125 "/></g></g></g></svg>