<svg xmlns="http://www.w3.org/2000/svg" xmlns:xlink="http://www.w3.org/1999/xlink" width="500" zoomAndPan="magnify" viewBox="0 0 375 374.999991" height="500" preserveAspectRatio="xMidYMid meet" version="1.0"><defs><g/><clipPath id="463debbe42"><path d="M 117.625 75 L 263 75 L 263 124 L 117.625 124 Z M 117.625 75 " clip-rule="nonzero"/></clipPath></defs><g fill="#292929" fill-opacity="1"><g transform="translate(74.944819, 169.232326)"><g><path d="M 11.34375 0 L 0 -46 L 18.453125 -46 L 23.125 -26.5625 L 26.125 -46 L 39.4375 -46 L 42.4375 -26.5625 L 47.09375 -46 L 65.25 -46 L 54.21875 0 L 36.1875 0 L 32.8125 -22.453125 L 29.375 0 Z M 11.34375 0 "/></g></g></g><g fill="#292929" fill-opacity="1"><g transform="translate(83.665809, 260.525008)"><g><path d="M 23.09375 0 L 0 -89.078125 L 26.75 -89.078125 L 35.84375 -44.5 L 44.859375 -89.078125 L 66.796875 -89.078125 L 75.890625 -44.5 L 84.890625 -89.078125 L 111.640625 -89.078125 L 88.546875 0 L 63.140625 0 L 55.828125 -36.203125 L 48.515625 0 Z M 23.09375 0 "/></g></g></g><g clip-path="url(#463debbe42)"><path fill="#383838" d="M 260.835938 118.777344 C 253.839844 112.121094 246.839844 103.246094 244.613281 106.097656 C 242.386719 108.632812 230.300781 94.6875 226.800781 92.785156 C 223.617188 90.882812 220.4375 95.953125 218.527344 96.90625 C 216.304688 97.855469 204.851562 84.859375 198.808594 78.203125 C 192.765625 71.863281 191.175781 77.886719 183.222656 85.496094 C 175.269531 93.101562 175.269531 95.003906 172.40625 90.882812 C 169.226562 86.761719 168.589844 80.742188 164.773438 86.128906 C 160.636719 91.199219 144.734375 108.632812 141.554688 105.78125 C 138.371094 102.929688 137.417969 105.78125 133.917969 108.953125 C 130.738281 112.121094 131.371094 112.121094 129.144531 110.851562 C 126.921875 109.585938 117.695312 123.847656 117.695312 123.847656 C 117.695312 123.847656 128.511719 112.4375 129.144531 114.023438 C 129.78125 115.925781 133.601562 113.707031 136.78125 109.585938 C 139.960938 105.78125 139.960938 108.632812 140.277344 110.851562 C 140.597656 113.386719 149.820312 105.464844 146.960938 109.902344 C 144.097656 114.023438 144.734375 115.289062 149.820312 108.632812 C 155.230469 102.292969 157.457031 96.90625 155.863281 101.027344 C 154.59375 105.464844 152.050781 109.269531 156.503906 103.878906 C 160.953125 98.808594 166.363281 88.347656 168.273438 91.199219 C 170.496094 94.054688 171.136719 97.539062 174.632812 96.589844 C 177.8125 95.953125 181.3125 92.785156 186.085938 88.980469 C 190.535156 85.179688 186.722656 90.25 183.539062 93.738281 C 180.359375 97.222656 189.265625 89.617188 192.128906 86.761719 C 194.992188 83.910156 198.808594 81.691406 201.671875 84.226562 C 204.53125 86.761719 211.214844 95.636719 214.714844 98.171875 C 218.210938 101.027344 220.757812 104.195312 224.574219 106.730469 C 228.390625 109.585938 237.933594 118.144531 234.753906 114.023438 C 231.570312 110.21875 226.480469 105.464844 225.847656 102.929688 C 225.527344 100.710938 234.117188 107.367188 233.164062 106.097656 C 232.210938 104.832031 226.800781 99.441406 227.117188 97.222656 C 227.4375 94.6875 229.664062 97.539062 231.890625 99.125 C 234.117188 100.710938 235.070312 102.929688 237.613281 105.78125 C 240.160156 108.316406 242.066406 109.585938 248.113281 114.339844 C 254.472656 119.09375 251.929688 116.242188 249.066406 112.4375 C 245.886719 108.632812 245.886719 107.050781 247.476562 108.316406 C 249.386719 109.585938 267.515625 125.117188 260.835938 118.777344 Z M 260.835938 118.777344 " fill-opacity="1" fill-rule="evenodd"/></g><g fill="#292929" fill-opacity="1"><g transform="translate(130.525513, 169.232326)"><g><path d="M 0.609375 -12.515625 C 0.609375 -14.023438 0.84375 -15.523438 1.3125 -17.015625 C 1.789062 -18.503906 2.550781 -19.863281 3.59375 -21.09375 C 4.632812 -22.320312 6.03125 -23.300781 7.78125 -24.03125 C 9.539062 -24.769531 11.710938 -25.140625 14.296875 -25.140625 L 23.859375 -25.140625 C 23.859375 -26.160156 23.242188 -26.820312 22.015625 -27.125 C 20.785156 -27.4375 18.945312 -27.59375 16.5 -27.59375 L 4.421875 -27.59375 L 8.890625 -46 L 23.859375 -46 C 27.492188 -46 30.679688 -45.445312 33.421875 -44.34375 C 36.160156 -43.238281 38.296875 -41.5 39.828125 -39.125 C 41.359375 -36.757812 42.125 -33.632812 42.125 -29.75 L 42.125 0 L 13.546875 0 C 10.359375 0 7.8125 -0.613281 5.90625 -1.84375 C 4.007812 -3.070312 2.648438 -4.644531 1.828125 -6.5625 C 1.015625 -8.476562 0.609375 -10.460938 0.609375 -12.515625 Z M 19.5625 -16.921875 C 19.5625 -16.347656 19.773438 -15.945312 20.203125 -15.71875 C 20.640625 -15.5 21.125 -15.390625 21.65625 -15.390625 L 23.859375 -15.390625 L 23.859375 -18.515625 L 21.65625 -18.515625 C 21.082031 -18.515625 20.585938 -18.390625 20.171875 -18.140625 C 19.765625 -17.898438 19.5625 -17.492188 19.5625 -16.921875 Z M 19.5625 -16.921875 "/></g></g></g><g fill="#292929" fill-opacity="1"><g transform="translate(167.564697, 169.232326)"><g><path d="M 0.921875 -46 L 22.015625 -46 C 25.367188 -46 28.472656 -45.363281 31.328125 -44.09375 C 34.191406 -42.820312 36.492188 -40.890625 38.234375 -38.296875 C 39.972656 -35.703125 40.84375 -32.378906 40.84375 -28.328125 L 40.84375 0 L 22.453125 0 L 22.453125 -24.046875 C 22.453125 -25.109375 22.378906 -25.984375 22.234375 -26.671875 C 22.085938 -27.367188 21.546875 -27.71875 20.609375 -27.71875 L 19.3125 -27.71875 L 19.3125 0 L 0.921875 0 Z M 0.921875 -46 "/></g></g></g><g fill="#292929" fill-opacity="1"><g transform="translate(203.316066, 169.232326)"><g><path d="M 23.609375 0 C 20.503906 0 17.570312 -0.519531 14.8125 -1.5625 C 12.050781 -2.601562 9.640625 -4.113281 7.578125 -6.09375 C 5.515625 -8.082031 3.890625 -10.492188 2.703125 -13.328125 C 1.515625 -16.171875 0.921875 -19.394531 0.921875 -23 C 0.921875 -27.738281 1.769531 -31.828125 3.46875 -35.265625 C 5.164062 -38.703125 7.695312 -41.347656 11.0625 -43.203125 C 14.4375 -45.066406 18.617188 -46 23.609375 -46 L 23.609375 -61.328125 L 42.015625 -61.328125 L 42.015625 0 Z M 23.609375 -28.21875 C 22.796875 -28.21875 22.101562 -27.957031 21.53125 -27.4375 C 20.957031 -26.925781 20.515625 -26.28125 20.203125 -25.5 C 19.898438 -24.726562 19.75 -23.976562 19.75 -23.25 C 19.75 -21.851562 20.125 -20.664062 20.875 -19.6875 C 21.632812 -18.707031 22.546875 -18.21875 23.609375 -18.21875 Z M 23.609375 -28.21875 "/></g></g></g><g fill="#292929" fill-opacity="1"><g transform="translate(240.232598, 169.232326)"><g><path d="M 0.609375 -23 C 0.609375 -26.476562 1.179688 -29.675781 2.328125 -32.59375 C 3.472656 -35.519531 5.117188 -38.046875 7.265625 -40.171875 C 9.410156 -42.296875 11.941406 -43.953125 14.859375 -45.140625 C 17.785156 -46.328125 21.03125 -46.921875 24.59375 -46.921875 C 28.882812 -46.921875 32.582031 -46.222656 35.6875 -44.828125 C 38.800781 -43.441406 41.285156 -41.550781 43.140625 -39.15625 C 45.003906 -36.769531 46.222656 -34.03125 46.796875 -30.9375 C 47.367188 -27.851562 47.242188 -24.59375 46.421875 -21.15625 L 19.078125 -21.15625 C 19.078125 -20.21875 19.578125 -19.523438 20.578125 -19.078125 C 21.578125 -18.628906 22.894531 -18.40625 24.53125 -18.40625 C 24.8125 -18.40625 25.515625 -18.40625 26.640625 -18.40625 C 27.765625 -18.40625 29.125 -18.40625 30.71875 -18.40625 C 32.320312 -18.40625 33.976562 -18.40625 35.6875 -18.40625 C 37.40625 -18.40625 39 -18.40625 40.46875 -18.40625 C 41.945312 -18.40625 43.15625 -18.40625 44.09375 -18.40625 C 45.03125 -18.40625 45.5 -18.40625 45.5 -18.40625 L 45.5 0 C 45.5 0 43.738281 0 40.21875 0 C 36.707031 0 31.476562 0 24.53125 0 C 19.90625 0 15.796875 -0.914062 12.203125 -2.75 C 8.609375 -4.59375 5.773438 -7.242188 3.703125 -10.703125 C 1.640625 -14.160156 0.609375 -18.257812 0.609375 -23 Z M 24.53125 -30.84375 C 23.21875 -30.84375 22.0625 -30.554688 21.0625 -29.984375 C 20.0625 -29.410156 19.316406 -28.613281 18.828125 -27.59375 L 30.296875 -27.59375 C 29.765625 -28.613281 29 -29.410156 28 -29.984375 C 27 -30.554688 25.84375 -30.84375 24.53125 -30.84375 Z M 24.53125 -30.84375 "/></g></g></g><g fill="#292929" fill-opacity="1"><g transform="translate(281.993757, 169.232326)"><g><path d="M 0.921875 0 L 0.921875 -28.328125 C 0.921875 -32.378906 1.789062 -35.703125 3.53125 -38.296875 C 5.269531 -40.890625 7.566406 -42.820312 10.421875 -44.09375 C 13.285156 -45.363281 16.394531 -46 19.75 -46 L 26.921875 -46 L 26.921875 -27.71875 L 21.15625 -27.71875 C 20.257812 -27.71875 19.726562 -27.367188 19.5625 -26.671875 C 19.394531 -25.984375 19.3125 -25.109375 19.3125 -24.046875 L 19.3125 0 Z M 0.921875 0 "/></g></g></g><g fill="#292929" fill-opacity="1"><g transform="translate(176.450544, 260.525008)"><g><path d="M 26.9375 0 L 0 0 L 23 -89.078125 L 49.9375 -89.078125 L 73.03125 0 L 46.109375 0 L 44.234375 -8.46875 L 28.71875 -8.46875 Z M 36.46875 -44.59375 L 33.53125 -30.765625 L 39.5 -30.765625 Z M 36.46875 -44.59375 "/></g></g></g><g fill="#292929" fill-opacity="1"><g transform="translate(230.106069, 260.525008)"><g><path d="M 36.203125 -61.703125 L 45.125 -89.078125 L 72.5 -89.078125 L 49.578125 -31.5625 L 49.578125 0 L 22.828125 0 L 22.828125 -31.5625 L 0 -89.078125 L 27.375 -89.078125 Z M 36.203125 -61.703125 "/></g></g></g><g fill="#292929" fill-opacity="1"><g transform="translate(101.851301, 331.999958)"><g><path d="M 0.203125 -4.078125 C 0.203125 -4.566406 0.273438 -5.054688 0.421875 -5.546875 C 0.578125 -6.035156 0.828125 -6.476562 1.171875 -6.875 C 1.515625 -7.28125 1.972656 -7.601562 2.546875 -7.84375 C 3.117188 -8.082031 3.820312 -8.203125 4.65625 -8.203125 L 7.78125 -8.203125 C 7.78125 -8.535156 7.578125 -8.75 7.171875 -8.84375 C 6.773438 -8.945312 6.175781 -9 5.375 -9 L 1.4375 -9 L 2.90625 -15 L 7.78125 -15 C 8.96875 -15 10.003906 -14.816406 10.890625 -14.453125 C 11.785156 -14.097656 12.484375 -13.53125 12.984375 -12.75 C 13.484375 -11.976562 13.734375 -10.960938 13.734375 -9.703125 L 13.734375 0 L 4.421875 0 C 3.378906 0 2.546875 -0.195312 1.921875 -0.59375 C 1.304688 -1 0.863281 -1.515625 0.59375 -2.140625 C 0.332031 -2.765625 0.203125 -3.410156 0.203125 -4.078125 Z M 6.375 -5.515625 C 6.375 -5.328125 6.441406 -5.195312 6.578125 -5.125 C 6.722656 -5.050781 6.882812 -5.015625 7.0625 -5.015625 L 7.78125 -5.015625 L 7.78125 -6.046875 L 7.0625 -6.046875 C 6.875 -6.046875 6.710938 -6.003906 6.578125 -5.921875 C 6.441406 -5.835938 6.375 -5.703125 6.375 -5.515625 Z M 6.375 -5.515625 "/></g></g></g><g fill="#292929" fill-opacity="1"><g transform="translate(113.925745, 331.999958)"><g><path d="M 7.703125 0 C 6.691406 0 5.734375 -0.164062 4.828125 -0.5 C 3.929688 -0.84375 3.144531 -1.335938 2.46875 -1.984375 C 1.789062 -2.628906 1.257812 -3.414062 0.875 -4.34375 C 0.488281 -5.269531 0.296875 -6.320312 0.296875 -7.5 C 0.296875 -9.039062 0.570312 -10.375 1.125 -11.5 C 1.675781 -12.625 2.503906 -13.488281 3.609375 -14.09375 C 4.710938 -14.695312 6.078125 -15 7.703125 -15 L 7.703125 -20 L 13.703125 -20 L 13.703125 0 Z M 7.703125 -9.203125 C 7.429688 -9.203125 7.203125 -9.117188 7.015625 -8.953125 C 6.828125 -8.785156 6.679688 -8.570312 6.578125 -8.3125 C 6.484375 -8.0625 6.4375 -7.816406 6.4375 -7.578125 C 6.4375 -7.128906 6.5625 -6.742188 6.8125 -6.421875 C 7.0625 -6.097656 7.359375 -5.9375 7.703125 -5.9375 Z M 7.703125 -9.203125 "/></g></g></g><g fill="#292929" fill-opacity="1"><g transform="translate(125.960204, 331.999958)"><g><path d="M 0 -15 L 6.484375 -15 L 7.578125 -6.453125 L 8.65625 -15 L 15.140625 -15 L 11.28125 0 L 3.859375 0 Z M 0 -15 "/></g></g></g><g fill="#292929" fill-opacity="1"><g transform="translate(139.134221, 331.999958)"><g><path d="M 0.203125 -7.5 C 0.203125 -8.632812 0.382812 -9.675781 0.75 -10.625 C 1.125 -11.582031 1.660156 -12.40625 2.359375 -13.09375 C 3.066406 -13.789062 3.894531 -14.332031 4.84375 -14.71875 C 5.800781 -15.101562 6.859375 -15.296875 8.015625 -15.296875 C 9.421875 -15.296875 10.628906 -15.066406 11.640625 -14.609375 C 12.648438 -14.160156 13.457031 -13.546875 14.0625 -12.765625 C 14.675781 -11.984375 15.078125 -11.085938 15.265625 -10.078125 C 15.453125 -9.078125 15.410156 -8.019531 15.140625 -6.90625 L 6.21875 -6.90625 C 6.21875 -6.59375 6.378906 -6.363281 6.703125 -6.21875 C 7.035156 -6.070312 7.46875 -6 8 -6 C 8.09375 -6 8.320312 -6 8.6875 -6 C 9.050781 -6 9.492188 -6 10.015625 -6 C 10.535156 -6 11.078125 -6 11.640625 -6 C 12.203125 -6 12.722656 -6 13.203125 -6 C 13.679688 -6 14.070312 -6 14.375 -6 C 14.6875 -6 14.84375 -6 14.84375 -6 L 14.84375 0 C 14.84375 0 14.269531 0 13.125 0 C 11.976562 0 10.269531 0 8 0 C 6.488281 0 5.144531 -0.296875 3.96875 -0.890625 C 2.800781 -1.492188 1.878906 -2.359375 1.203125 -3.484375 C 0.535156 -4.617188 0.203125 -5.957031 0.203125 -7.5 Z M 8 -10.0625 C 7.570312 -10.0625 7.191406 -9.96875 6.859375 -9.78125 C 6.535156 -9.59375 6.296875 -9.332031 6.140625 -9 L 9.875 -9 C 9.707031 -9.332031 9.457031 -9.59375 9.125 -9.78125 C 8.800781 -9.96875 8.425781 -10.0625 8 -10.0625 Z M 8 -10.0625 "/></g></g></g><g fill="#292929" fill-opacity="1"><g transform="translate(152.748054, 331.999958)"><g><path d="M 0.296875 -15 L 7.1875 -15 C 8.269531 -15 9.28125 -14.789062 10.21875 -14.375 C 11.15625 -13.96875 11.90625 -13.335938 12.46875 -12.484375 C 13.03125 -11.640625 13.3125 -10.554688 13.3125 -9.234375 L 13.3125 0 L 7.3125 0 L 7.3125 -7.84375 C 7.3125 -8.1875 7.289062 -8.472656 7.25 -8.703125 C 7.207031 -8.929688 7.03125 -9.046875 6.71875 -9.046875 L 6.296875 -9.046875 L 6.296875 0 L 0.296875 0 Z M 0.296875 -15 "/></g></g></g><g fill="#292929" fill-opacity="1"><g transform="translate(164.40266, 331.999958)"><g><path d="M 0.296875 -18 L 6.234375 -18 L 6.234375 -15 L 8.234375 -15 L 8.234375 -9 L 6.265625 -9 L 6.265625 -6.953125 C 6.265625 -6.640625 6.363281 -6.394531 6.5625 -6.21875 C 6.757812 -6.039062 6.992188 -5.953125 7.265625 -5.953125 L 8.21875 -5.9375 L 8.21875 0 L 6.4375 0 C 5.34375 0 4.328125 -0.203125 3.390625 -0.609375 C 2.460938 -1.015625 1.710938 -1.644531 1.140625 -2.5 C 0.578125 -3.351562 0.296875 -4.441406 0.296875 -5.765625 Z M 0.296875 -18 "/></g></g></g><g fill="#292929" fill-opacity="1"><g transform="translate(170.97927, 331.999958)"><g><path d="M 0.296875 -5.765625 L 0.296875 -15 L 6.296875 -15 L 6.296875 -7.15625 C 6.296875 -6.820312 6.320312 -6.535156 6.375 -6.296875 C 6.425781 -6.066406 6.601562 -5.953125 6.90625 -5.953125 L 7.3125 -5.953125 L 7.3125 -15 L 13.3125 -15 L 13.3125 0 L 6.4375 0 C 5.34375 0 4.328125 -0.203125 3.390625 -0.609375 C 2.460938 -1.015625 1.710938 -1.644531 1.140625 -2.5 C 0.578125 -3.351562 0.296875 -4.441406 0.296875 -5.765625 Z M 0.296875 -5.765625 "/></g></g></g><g fill="#292929" fill-opacity="1"><g transform="translate(182.633875, 331.999958)"><g><path d="M 0.296875 0 L 0.296875 -9.234375 C 0.296875 -10.554688 0.578125 -11.640625 1.140625 -12.484375 C 1.710938 -13.335938 2.460938 -13.96875 3.390625 -14.375 C 4.328125 -14.789062 5.34375 -15 6.4375 -15 L 8.78125 -15 L 8.78125 -9.046875 L 6.90625 -9.046875 C 6.601562 -9.046875 6.425781 -8.929688 6.375 -8.703125 C 6.320312 -8.472656 6.296875 -8.1875 6.296875 -7.84375 L 6.296875 0 Z M 0.296875 0 "/></g></g></g><g fill="#292929" fill-opacity="1"><g transform="translate(189.75028, 331.999958)"><g><path d="M 0.203125 -7.5 C 0.203125 -8.632812 0.382812 -9.675781 0.75 -10.625 C 1.125 -11.582031 1.660156 -12.40625 2.359375 -13.09375 C 3.066406 -13.789062 3.894531 -14.332031 4.84375 -14.71875 C 5.800781 -15.101562 6.859375 -15.296875 8.015625 -15.296875 C 9.421875 -15.296875 10.628906 -15.066406 11.640625 -14.609375 C 12.648438 -14.160156 13.457031 -13.546875 14.0625 -12.765625 C 14.675781 -11.984375 15.078125 -11.085938 15.265625 -10.078125 C 15.453125 -9.078125 15.410156 -8.019531 15.140625 -6.90625 L 6.21875 -6.90625 C 6.21875 -6.59375 6.378906 -6.363281 6.703125 -6.21875 C 7.035156 -6.070312 7.46875 -6 8 -6 C 8.09375 -6 8.320312 -6 8.6875 -6 C 9.050781 -6 9.492188 -6 10.015625 -6 C 10.535156 -6 11.078125 -6 11.640625 -6 C 12.203125 -6 12.722656 -6 13.203125 -6 C 13.679688 -6 14.070312 -6 14.375 -6 C 14.6875 -6 14.84375 -6 14.84375 -6 L 14.84375 0 C 14.84375 0 14.269531 0 13.125 0 C 11.976562 0 10.269531 0 8 0 C 6.488281 0 5.144531 -0.296875 3.96875 -0.890625 C 2.800781 -1.492188 1.878906 -2.359375 1.203125 -3.484375 C 0.535156 -4.617188 0.203125 -5.957031 0.203125 -7.5 Z M 8 -10.0625 C 7.570312 -10.0625 7.191406 -9.96875 6.859375 -9.78125 C 6.535156 -9.59375 6.296875 -9.332031 6.140625 -9 L 9.875 -9 C 9.707031 -9.332031 9.457031 -9.59375 9.125 -9.78125 C 8.800781 -9.96875 8.425781 -10.0625 8 -10.0625 Z M 8 -10.0625 "/></g></g></g><g fill="#292929" fill-opacity="1"><g transform="translate(207.801577, 331.999958)"><g><path d="M 0.203125 -4.078125 C 0.203125 -4.566406 0.273438 -5.054688 0.421875 -5.546875 C 0.578125 -6.035156 0.828125 -6.476562 1.171875 -6.875 C 1.515625 -7.28125 1.972656 -7.601562 2.546875 -7.84375 C 3.117188 -8.082031 3.820312 -8.203125 4.65625 -8.203125 L 7.78125 -8.203125 C 7.78125 -8.535156 7.578125 -8.75 7.171875 -8.84375 C 6.773438 -8.945312 6.175781 -9 5.375 -9 L 1.4375 -9 L 2.90625 -15 L 7.78125 -15 C 8.96875 -15 10.003906 -14.816406 10.890625 -14.453125 C 11.785156 -14.097656 12.484375 -13.53125 12.984375 -12.75 C 13.484375 -11.976562 13.734375 -10.960938 13.734375 -9.703125 L 13.734375 0 L 4.421875 0 C 3.378906 0 2.546875 -0.195312 1.921875 -0.59375 C 1.304688 -1 0.863281 -1.515625 0.59375 -2.140625 C 0.332031 -2.765625 0.203125 -3.410156 0.203125 -4.078125 Z M 6.375 -5.515625 C 6.375 -5.328125 6.441406 -5.195312 6.578125 -5.125 C 6.722656 -5.050781 6.882812 -5.015625 7.0625 -5.015625 L 7.78125 -5.015625 L 7.78125 -6.046875 L 7.0625 -6.046875 C 6.875 -6.046875 6.710938 -6.003906 6.578125 -5.921875 C 6.441406 -5.835938 6.375 -5.703125 6.375 -5.515625 Z M 6.375 -5.515625 "/></g></g></g><g fill="#292929" fill-opacity="1"><g transform="translate(219.87602, 331.999958)"><g><path d="M 3.703125 0 L 0 -15 L 6.015625 -15 L 7.546875 -8.65625 L 8.515625 -15 L 12.859375 -15 L 13.84375 -8.65625 L 15.359375 -15 L 21.28125 -15 L 17.6875 0 L 11.796875 0 L 10.703125 -7.3125 L 9.578125 0 Z M 3.703125 0 "/></g></g></g><g fill="#292929" fill-opacity="1"><g transform="translate(239.187615, 331.999958)"><g><path d="M 0.203125 -4.078125 C 0.203125 -4.566406 0.273438 -5.054688 0.421875 -5.546875 C 0.578125 -6.035156 0.828125 -6.476562 1.171875 -6.875 C 1.515625 -7.28125 1.972656 -7.601562 2.546875 -7.84375 C 3.117188 -8.082031 3.820312 -8.203125 4.65625 -8.203125 L 7.78125 -8.203125 C 7.78125 -8.535156 7.578125 -8.75 7.171875 -8.84375 C 6.773438 -8.945312 6.175781 -9 5.375 -9 L 1.4375 -9 L 2.90625 -15 L 7.78125 -15 C 8.96875 -15 10.003906 -14.816406 10.890625 -14.453125 C 11.785156 -14.097656 12.484375 -13.53125 12.984375 -12.75 C 13.484375 -11.976562 13.734375 -10.960938 13.734375 -9.703125 L 13.734375 0 L 4.421875 0 C 3.378906 0 2.546875 -0.195312 1.921875 -0.59375 C 1.304688 -1 0.863281 -1.515625 0.59375 -2.140625 C 0.332031 -2.765625 0.203125 -3.410156 0.203125 -4.078125 Z M 6.375 -5.515625 C 6.375 -5.328125 6.441406 -5.195312 6.578125 -5.125 C 6.722656 -5.050781 6.882812 -5.015625 7.0625 -5.015625 L 7.78125 -5.015625 L 7.78125 -6.046875 L 7.0625 -6.046875 C 6.875 -6.046875 6.710938 -6.003906 6.578125 -5.921875 C 6.441406 -5.835938 6.375 -5.703125 6.375 -5.515625 Z M 6.375 -5.515625 "/></g></g></g><g fill="#292929" fill-opacity="1"><g transform="translate(251.262058, 331.999958)"><g><path d="M 6.296875 0 L 0.296875 0 L 0.296875 -15 L 6.296875 -15 Z M 6.296875 -15.953125 L 0.296875 -15.953125 L 0.296875 -21.953125 L 6.296875 -21.953125 Z M 6.296875 -15.953125 "/></g></g></g><g fill="#292929" fill-opacity="1"><g transform="translate(255.899432, 331.999958)"><g><path d="M 0.296875 -18 L 6.234375 -18 L 6.234375 -15 L 8.234375 -15 L 8.234375 -9 L 6.265625 -9 L 6.265625 -6.953125 C 6.265625 -6.640625 6.363281 -6.394531 6.5625 -6.21875 C 6.757812 -6.039062 6.992188 -5.953125 7.265625 -5.953125 L 8.21875 -5.9375 L 8.21875 0 L 6.4375 0 C 5.34375 0 4.328125 -0.203125 3.390625 -0.609375 C 2.460938 -1.015625 1.710938 -1.644531 1.140625 -2.5 C 0.578125 -3.351562 0.296875 -4.441406 0.296875 -5.765625 Z M 0.296875 -18 "/></g></g></g><g fill="#292929" fill-opacity="1"><g transform="translate(262.476043, 331.999958)"><g><path d="M 6.734375 0 L 0 0 L 0 -6 L 1.90625 -6 C 2.300781 -6 2.648438 -6.019531 2.953125 -6.0625 C 3.265625 -6.113281 3.421875 -6.285156 3.421875 -6.578125 C 3.421875 -6.765625 3.300781 -6.972656 3.0625 -7.203125 C 2.832031 -7.429688 2.550781 -7.691406 2.21875 -7.984375 C 1.882812 -8.285156 1.546875 -8.617188 1.203125 -8.984375 C 0.867188 -9.359375 0.582031 -9.769531 0.34375 -10.21875 C 0.113281 -10.675781 0 -11.175781 0 -11.71875 C 0 -12.4375 0.175781 -13.039062 0.53125 -13.53125 C 0.882812 -14.019531 1.347656 -14.382812 1.921875 -14.625 C 2.492188 -14.875 3.117188 -15 3.796875 -15 L 10.765625 -15 L 10.765625 -8.984375 L 9.796875 -8.984375 C 9.128906 -8.984375 8.664062 -8.960938 8.40625 -8.921875 C 8.144531 -8.878906 8.015625 -8.742188 8.015625 -8.515625 C 8.015625 -8.328125 8.125 -8.125 8.34375 -7.90625 C 8.570312 -7.695312 8.84375 -7.460938 9.15625 -7.203125 C 9.476562 -6.941406 9.796875 -6.640625 10.109375 -6.296875 C 10.429688 -5.960938 10.703125 -5.585938 10.921875 -5.171875 C 11.148438 -4.753906 11.265625 -4.269531 11.265625 -3.71875 C 11.265625 -3.007812 11.128906 -2.414062 10.859375 -1.9375 C 10.585938 -1.46875 10.234375 -1.085938 9.796875 -0.796875 C 9.359375 -0.515625 8.875 -0.3125 8.34375 -0.1875 C 7.8125 -0.0625 7.273438 0 6.734375 0 Z M 6.734375 0 "/></g></g></g><g fill="#292929" fill-opacity="1"><g transform="translate(271.87155, 331.999958)"><g><path d="M 6.296875 -6.046875 L 6.296875 -0.015625 L 0.296875 0.015625 L 0.296875 -6.046875 Z M 6.296875 -6.046875 "/></g></g></g></svg>