<svg xmlns="http://www.w3.org/2000/svg" xmlns:xlink="http://www.w3.org/1999/xlink" width="500" zoomAndPan="magnify" viewBox="0 0 375 374.999991" height="500" preserveAspectRatio="xMidYMid meet" version="1.0"><defs><g/></defs><g fill="#292929" fill-opacity="1"><g transform="translate(93.027164, 221.371113)"><g><path d="M 0.203125 -4.28125 C 0.203125 -4.800781 0.28125 -5.316406 0.4375 -5.828125 C 0.601562 -6.335938 0.863281 -6.800781 1.21875 -7.21875 C 1.582031 -7.644531 2.0625 -7.984375 2.65625 -8.234375 C 3.257812 -8.484375 4.003906 -8.609375 4.890625 -8.609375 L 8.171875 -8.609375 C 8.171875 -8.960938 7.957031 -9.191406 7.53125 -9.296875 C 7.113281 -9.398438 6.488281 -9.453125 5.65625 -9.453125 L 1.515625 -9.453125 L 3.046875 -15.75 L 8.171875 -15.75 C 9.410156 -15.75 10.5 -15.554688 11.4375 -15.171875 C 12.382812 -14.796875 13.117188 -14.203125 13.640625 -13.390625 C 14.160156 -12.585938 14.421875 -11.519531 14.421875 -10.1875 L 14.421875 0 L 4.640625 0 C 3.546875 0 2.671875 -0.207031 2.015625 -0.625 C 1.367188 -1.050781 0.90625 -1.59375 0.625 -2.25 C 0.34375 -2.90625 0.203125 -3.582031 0.203125 -4.28125 Z M 6.703125 -5.796875 C 6.703125 -5.597656 6.773438 -5.457031 6.921875 -5.375 C 7.066406 -5.300781 7.226562 -5.265625 7.40625 -5.265625 L 8.171875 -5.265625 L 8.171875 -6.34375 L 7.40625 -6.34375 C 7.21875 -6.34375 7.050781 -6.300781 6.90625 -6.21875 C 6.769531 -6.132812 6.703125 -5.992188 6.703125 -5.796875 Z M 6.703125 -5.796875 "/></g></g></g><g fill="#292929" fill-opacity="1"><g transform="translate(105.585209, 221.371113)"><g><path d="M 8.078125 0 C 7.015625 0 6.007812 -0.175781 5.0625 -0.53125 C 4.125 -0.894531 3.300781 -1.414062 2.59375 -2.09375 C 1.882812 -2.769531 1.328125 -3.59375 0.921875 -4.5625 C 0.515625 -5.539062 0.3125 -6.644531 0.3125 -7.875 C 0.3125 -9.5 0.601562 -10.898438 1.1875 -12.078125 C 1.769531 -13.253906 2.632812 -14.160156 3.78125 -14.796875 C 4.9375 -15.429688 6.367188 -15.75 8.078125 -15.75 L 8.078125 -21 L 14.390625 -21 L 14.390625 0 Z M 8.078125 -9.65625 C 7.804688 -9.65625 7.570312 -9.566406 7.375 -9.390625 C 7.175781 -9.222656 7.023438 -9.003906 6.921875 -8.734375 C 6.816406 -8.472656 6.765625 -8.210938 6.765625 -7.953125 C 6.765625 -7.484375 6.890625 -7.078125 7.140625 -6.734375 C 7.398438 -6.398438 7.710938 -6.234375 8.078125 -6.234375 Z M 8.078125 -9.65625 "/></g></g></g><g fill="#292929" fill-opacity="1"><g transform="translate(118.101253, 221.371113)"><g><path d="M 0 -15.75 L 6.796875 -15.75 L 7.953125 -6.78125 L 9.09375 -15.75 L 15.890625 -15.75 L 11.84375 0 L 4.046875 0 Z M 0 -15.75 "/></g></g></g><g fill="#292929" fill-opacity="1"><g transform="translate(131.814304, 221.371113)"><g><path d="M 0.203125 -7.875 C 0.203125 -9.0625 0.398438 -10.15625 0.796875 -11.15625 C 1.191406 -12.15625 1.753906 -13.019531 2.484375 -13.75 C 3.222656 -14.476562 4.09375 -15.046875 5.09375 -15.453125 C 6.09375 -15.859375 7.203125 -16.0625 8.421875 -16.0625 C 9.890625 -16.0625 11.15625 -15.820312 12.21875 -15.34375 C 13.28125 -14.875 14.128906 -14.226562 14.765625 -13.40625 C 15.410156 -12.59375 15.828125 -11.65625 16.015625 -10.59375 C 16.210938 -9.539062 16.171875 -8.425781 15.890625 -7.25 L 6.53125 -7.25 C 6.53125 -6.925781 6.703125 -6.6875 7.046875 -6.53125 C 7.390625 -6.375 7.84375 -6.296875 8.40625 -6.296875 C 8.5 -6.296875 8.738281 -6.296875 9.125 -6.296875 C 9.507812 -6.296875 9.972656 -6.296875 10.515625 -6.296875 C 11.066406 -6.296875 11.632812 -6.296875 12.21875 -6.296875 C 12.8125 -6.296875 13.359375 -6.296875 13.859375 -6.296875 C 14.359375 -6.296875 14.769531 -6.296875 15.09375 -6.296875 C 15.414062 -6.296875 15.578125 -6.296875 15.578125 -6.296875 L 15.578125 0 C 15.578125 0 14.972656 0 13.765625 0 C 12.566406 0 10.78125 0 8.40625 0 C 6.820312 0 5.410156 -0.3125 4.171875 -0.9375 C 2.941406 -1.570312 1.972656 -2.476562 1.265625 -3.65625 C 0.554688 -4.84375 0.203125 -6.25 0.203125 -7.875 Z M 8.40625 -10.5625 C 7.957031 -10.5625 7.5625 -10.460938 7.21875 -10.265625 C 6.875 -10.066406 6.617188 -9.796875 6.453125 -9.453125 L 10.375 -9.453125 C 10.1875 -9.796875 9.921875 -10.066406 9.578125 -10.265625 C 9.242188 -10.460938 8.851562 -10.5625 8.40625 -10.5625 Z M 8.40625 -10.5625 "/></g></g></g><g fill="#292929" fill-opacity="1"><g transform="translate(145.989353, 221.371113)"><g><path d="M 0.3125 -15.75 L 7.53125 -15.75 C 8.6875 -15.75 9.753906 -15.53125 10.734375 -15.09375 C 11.710938 -14.664062 12.5 -14.003906 13.09375 -13.109375 C 13.6875 -12.222656 13.984375 -11.085938 13.984375 -9.703125 L 13.984375 0 L 7.6875 0 L 7.6875 -8.234375 C 7.6875 -8.597656 7.660156 -8.894531 7.609375 -9.125 C 7.554688 -9.363281 7.375 -9.484375 7.0625 -9.484375 L 6.609375 -9.484375 L 6.609375 0 L 0.3125 0 Z M 0.3125 -15.75 "/></g></g></g><g fill="#292929" fill-opacity="1"><g transform="translate(158.106402, 221.371113)"><g><path d="M 0.3125 -18.90625 L 6.546875 -18.90625 L 6.546875 -15.75 L 8.65625 -15.75 L 8.65625 -9.453125 L 6.578125 -9.453125 L 6.578125 -7.3125 C 6.578125 -6.96875 6.679688 -6.707031 6.890625 -6.53125 C 7.097656 -6.351562 7.34375 -6.265625 7.625 -6.265625 L 8.625 -6.234375 L 8.625 0 L 6.765625 0 C 5.617188 0 4.550781 -0.210938 3.5625 -0.640625 C 2.582031 -1.066406 1.796875 -1.726562 1.203125 -2.625 C 0.609375 -3.519531 0.3125 -4.660156 0.3125 -6.046875 Z M 0.3125 -18.90625 "/></g></g></g><g fill="#292929" fill-opacity="1"><g transform="translate(164.889429, 221.371113)"><g><path d="M 0.3125 -6.046875 L 0.3125 -15.75 L 6.609375 -15.75 L 6.609375 -7.515625 C 6.609375 -7.171875 6.632812 -6.875 6.6875 -6.625 C 6.75 -6.382812 6.9375 -6.265625 7.25 -6.265625 L 7.6875 -6.265625 L 7.6875 -15.75 L 13.984375 -15.75 L 13.984375 0 L 6.765625 0 C 5.617188 0 4.550781 -0.210938 3.5625 -0.640625 C 2.582031 -1.066406 1.796875 -1.726562 1.203125 -2.625 C 0.609375 -3.519531 0.3125 -4.660156 0.3125 -6.046875 Z M 0.3125 -6.046875 "/></g></g></g><g fill="#292929" fill-opacity="1"><g transform="translate(177.006479, 221.371113)"><g><path d="M 0.3125 0 L 0.3125 -9.703125 C 0.3125 -11.085938 0.609375 -12.222656 1.203125 -13.109375 C 1.796875 -14.003906 2.582031 -14.664062 3.5625 -15.09375 C 4.550781 -15.53125 5.617188 -15.75 6.765625 -15.75 L 9.21875 -15.75 L 9.21875 -9.484375 L 7.25 -9.484375 C 6.9375 -9.484375 6.75 -9.363281 6.6875 -9.125 C 6.632812 -8.894531 6.609375 -8.597656 6.609375 -8.234375 L 6.609375 0 Z M 0.3125 0 "/></g></g></g><g fill="#292929" fill-opacity="1"><g transform="translate(184.356503, 221.371113)"><g><path d="M 0.203125 -7.875 C 0.203125 -9.0625 0.398438 -10.15625 0.796875 -11.15625 C 1.191406 -12.15625 1.753906 -13.019531 2.484375 -13.75 C 3.222656 -14.476562 4.09375 -15.046875 5.09375 -15.453125 C 6.09375 -15.859375 7.203125 -16.0625 8.421875 -16.0625 C 9.890625 -16.0625 11.15625 -15.820312 12.21875 -15.34375 C 13.28125 -14.875 14.128906 -14.226562 14.765625 -13.40625 C 15.410156 -12.59375 15.828125 -11.65625 16.015625 -10.59375 C 16.210938 -9.539062 16.171875 -8.425781 15.890625 -7.25 L 6.53125 -7.25 C 6.53125 -6.925781 6.703125 -6.6875 7.046875 -6.53125 C 7.390625 -6.375 7.84375 -6.296875 8.40625 -6.296875 C 8.5 -6.296875 8.738281 -6.296875 9.125 -6.296875 C 9.507812 -6.296875 9.972656 -6.296875 10.515625 -6.296875 C 11.066406 -6.296875 11.632812 -6.296875 12.21875 -6.296875 C 12.8125 -6.296875 13.359375 -6.296875 13.859375 -6.296875 C 14.359375 -6.296875 14.769531 -6.296875 15.09375 -6.296875 C 15.414062 -6.296875 15.578125 -6.296875 15.578125 -6.296875 L 15.578125 0 C 15.578125 0 14.972656 0 13.765625 0 C 12.566406 0 10.78125 0 8.40625 0 C 6.820312 0 5.410156 -0.3125 4.171875 -0.9375 C 2.941406 -1.570312 1.972656 -2.476562 1.265625 -3.65625 C 0.554688 -4.84375 0.203125 -6.25 0.203125 -7.875 Z M 8.40625 -10.5625 C 7.957031 -10.5625 7.5625 -10.460938 7.21875 -10.265625 C 6.875 -10.066406 6.617188 -9.796875 6.453125 -9.453125 L 10.375 -9.453125 C 10.1875 -9.796875 9.921875 -10.066406 9.578125 -10.265625 C 9.242188 -10.460938 8.851562 -10.5625 8.40625 -10.5625 Z M 8.40625 -10.5625 "/></g></g></g><g fill="#292929" fill-opacity="1"><g transform="translate(198.531555, 221.371113)"><g/></g></g><g fill="#292929" fill-opacity="1"><g transform="translate(203.067569, 221.371113)"><g><path d="M 0.203125 -4.28125 C 0.203125 -4.800781 0.28125 -5.316406 0.4375 -5.828125 C 0.601562 -6.335938 0.863281 -6.800781 1.21875 -7.21875 C 1.582031 -7.644531 2.0625 -7.984375 2.65625 -8.234375 C 3.257812 -8.484375 4.003906 -8.609375 4.890625 -8.609375 L 8.171875 -8.609375 C 8.171875 -8.960938 7.957031 -9.191406 7.53125 -9.296875 C 7.113281 -9.398438 6.488281 -9.453125 5.65625 -9.453125 L 1.515625 -9.453125 L 3.046875 -15.75 L 8.171875 -15.75 C 9.410156 -15.75 10.5 -15.554688 11.4375 -15.171875 C 12.382812 -14.796875 13.117188 -14.203125 13.640625 -13.390625 C 14.160156 -12.585938 14.421875 -11.519531 14.421875 -10.1875 L 14.421875 0 L 4.640625 0 C 3.546875 0 2.671875 -0.207031 2.015625 -0.625 C 1.367188 -1.050781 0.90625 -1.59375 0.625 -2.25 C 0.34375 -2.90625 0.203125 -3.582031 0.203125 -4.28125 Z M 6.703125 -5.796875 C 6.703125 -5.597656 6.773438 -5.457031 6.921875 -5.375 C 7.066406 -5.300781 7.226562 -5.265625 7.40625 -5.265625 L 8.171875 -5.265625 L 8.171875 -6.34375 L 7.40625 -6.34375 C 7.21875 -6.34375 7.050781 -6.300781 6.90625 -6.21875 C 6.769531 -6.132812 6.703125 -5.992188 6.703125 -5.796875 Z M 6.703125 -5.796875 "/></g></g></g><g fill="#292929" fill-opacity="1"><g transform="translate(215.625617, 221.371113)"><g><path d="M 3.890625 0 L 0 -15.75 L 6.328125 -15.75 L 7.921875 -9.09375 L 8.953125 -15.75 L 13.5 -15.75 L 14.53125 -9.09375 L 16.125 -15.75 L 22.34375 -15.75 L 18.5625 0 L 12.390625 0 L 11.234375 -7.6875 L 10.0625 0 Z M 3.890625 0 "/></g></g></g><g fill="#292929" fill-opacity="1"><g transform="translate(235.785699, 221.371113)"><g><path d="M 0.203125 -4.28125 C 0.203125 -4.800781 0.28125 -5.316406 0.4375 -5.828125 C 0.601562 -6.335938 0.863281 -6.800781 1.21875 -7.21875 C 1.582031 -7.644531 2.0625 -7.984375 2.65625 -8.234375 C 3.257812 -8.484375 4.003906 -8.609375 4.890625 -8.609375 L 8.171875 -8.609375 C 8.171875 -8.960938 7.957031 -9.191406 7.53125 -9.296875 C 7.113281 -9.398438 6.488281 -9.453125 5.65625 -9.453125 L 1.515625 -9.453125 L 3.046875 -15.75 L 8.171875 -15.75 C 9.410156 -15.75 10.5 -15.554688 11.4375 -15.171875 C 12.382812 -14.796875 13.117188 -14.203125 13.640625 -13.390625 C 14.160156 -12.585938 14.421875 -11.519531 14.421875 -10.1875 L 14.421875 0 L 4.640625 0 C 3.546875 0 2.671875 -0.207031 2.015625 -0.625 C 1.367188 -1.050781 0.90625 -1.59375 0.625 -2.25 C 0.34375 -2.90625 0.203125 -3.582031 0.203125 -4.28125 Z M 6.703125 -5.796875 C 6.703125 -5.597656 6.773438 -5.457031 6.921875 -5.375 C 7.066406 -5.300781 7.226562 -5.265625 7.40625 -5.265625 L 8.171875 -5.265625 L 8.171875 -6.34375 L 7.40625 -6.34375 C 7.21875 -6.34375 7.050781 -6.300781 6.90625 -6.21875 C 6.769531 -6.132812 6.703125 -5.992188 6.703125 -5.796875 Z M 6.703125 -5.796875 "/></g></g></g><g fill="#292929" fill-opacity="1"><g transform="translate(248.343747, 221.371113)"><g><path d="M 6.609375 0 L 0.3125 0 L 0.3125 -15.75 L 6.609375 -15.75 Z M 6.609375 -16.765625 L 0.3125 -16.765625 L 0.3125 -23.0625 L 6.609375 -23.0625 Z M 6.609375 -16.765625 "/></g></g></g><g fill="#292929" fill-opacity="1"><g transform="translate(253.08976, 221.371113)"><g><path d="M 0.3125 -18.90625 L 6.546875 -18.90625 L 6.546875 -15.75 L 8.65625 -15.75 L 8.65625 -9.453125 L 6.578125 -9.453125 L 6.578125 -7.3125 C 6.578125 -6.96875 6.679688 -6.707031 6.890625 -6.53125 C 7.097656 -6.351562 7.34375 -6.265625 7.625 -6.265625 L 8.625 -6.234375 L 8.625 0 L 6.765625 0 C 5.617188 0 4.550781 -0.210938 3.5625 -0.640625 C 2.582031 -1.066406 1.796875 -1.726562 1.203125 -2.625 C 0.609375 -3.519531 0.3125 -4.660156 0.3125 -6.046875 Z M 0.3125 -18.90625 "/></g></g></g><g fill="#292929" fill-opacity="1"><g transform="translate(259.872787, 221.371113)"><g><path d="M 7.078125 0 L 0 0 L 0 -6.296875 L 2 -6.296875 C 2.414062 -6.296875 2.785156 -6.320312 3.109375 -6.375 C 3.429688 -6.425781 3.59375 -6.601562 3.59375 -6.90625 C 3.59375 -7.101562 3.46875 -7.320312 3.21875 -7.5625 C 2.976562 -7.800781 2.679688 -8.078125 2.328125 -8.390625 C 1.984375 -8.703125 1.628906 -9.050781 1.265625 -9.4375 C 0.910156 -9.820312 0.609375 -10.25 0.359375 -10.71875 C 0.117188 -11.195312 0 -11.726562 0 -12.3125 C 0 -13.0625 0.179688 -13.691406 0.546875 -14.203125 C 0.921875 -14.710938 1.410156 -15.097656 2.015625 -15.359375 C 2.617188 -15.617188 3.273438 -15.75 3.984375 -15.75 L 11.296875 -15.75 L 11.296875 -9.421875 L 10.296875 -9.421875 C 9.585938 -9.421875 9.097656 -9.398438 8.828125 -9.359375 C 8.554688 -9.316406 8.421875 -9.179688 8.421875 -8.953125 C 8.421875 -8.753906 8.535156 -8.539062 8.765625 -8.3125 C 8.992188 -8.09375 9.273438 -7.84375 9.609375 -7.5625 C 9.953125 -7.289062 10.289062 -6.976562 10.625 -6.625 C 10.957031 -6.269531 11.238281 -5.867188 11.46875 -5.421875 C 11.707031 -4.984375 11.828125 -4.476562 11.828125 -3.90625 C 11.828125 -3.164062 11.6875 -2.546875 11.40625 -2.046875 C 11.125 -1.546875 10.75 -1.144531 10.28125 -0.84375 C 9.820312 -0.550781 9.3125 -0.335938 8.75 -0.203125 C 8.195312 -0.0664062 7.640625 0 7.078125 0 Z M 7.078125 0 "/></g></g></g><g fill="#292929" fill-opacity="1"><g transform="translate(269.616824, 221.371113)"><g><path d="M 6.609375 -6.34375 L 6.609375 -0.015625 L 0.3125 0.015625 L 0.3125 -6.34375 Z M 6.609375 -6.34375 "/></g></g></g></svg>