<svg xmlns="http://www.w3.org/2000/svg" xmlns:xlink="http://www.w3.org/1999/xlink" width="500" zoomAndPan="magnify" viewBox="0 0 375 374.999991" height="500" preserveAspectRatio="xMidYMid meet" version="1.0"><defs><clipPath id="55e57d2bf6"><path d="M 114.59375 164 L 260 164 L 260 213 L 114.59375 213 Z M 114.59375 164 " clip-rule="nonzero"/></clipPath></defs><g clip-path="url(#55e57d2bf6)"><path fill="#383838" d="M 257.804688 207.699219 C 250.808594 201.042969 243.808594 192.167969 241.582031 195.023438 C 239.355469 197.558594 227.269531 183.609375 223.769531 181.707031 C 220.585938 179.808594 217.40625 184.878906 215.5 185.828125 C 213.273438 186.78125 201.820312 173.785156 195.777344 167.128906 C 189.734375 160.789062 188.144531 166.8125 180.191406 174.417969 C 172.238281 182.027344 172.238281 183.929688 169.375 179.808594 C 166.195312 175.6875 165.558594 169.664062 161.742188 175.050781 C 157.605469 180.125 141.703125 197.558594 138.523438 194.703125 C 135.339844 191.851562 134.386719 194.703125 130.886719 197.875 C 127.707031 201.042969 128.339844 201.042969 126.117188 199.777344 C 123.890625 198.507812 114.664062 212.773438 114.664062 212.773438 C 114.664062 212.773438 125.480469 201.359375 126.117188 202.945312 C 126.75 204.847656 130.570312 202.628906 133.75 198.507812 C 136.933594 194.703125 136.933594 197.558594 137.25 199.777344 C 137.566406 202.3125 146.789062 194.386719 143.929688 198.824219 C 141.066406 202.945312 141.703125 204.214844 146.789062 197.558594 C 152.199219 191.21875 154.425781 185.828125 152.835938 189.949219 C 151.5625 194.386719 149.019531 198.191406 153.472656 192.804688 C 157.921875 187.730469 163.332031 177.269531 165.242188 180.125 C 167.464844 182.976562 168.105469 186.464844 171.601562 185.511719 C 174.78125 184.878906 178.28125 181.707031 183.054688 177.90625 C 187.503906 174.101562 183.691406 179.171875 180.507812 182.660156 C 177.328125 186.148438 186.234375 178.539062 189.097656 175.6875 C 191.960938 172.832031 195.777344 170.613281 198.640625 173.152344 C 201.5 175.6875 208.183594 184.5625 211.683594 187.097656 C 215.183594 189.949219 217.726562 193.121094 221.542969 195.65625 C 225.359375 198.507812 234.902344 207.066406 231.722656 202.945312 C 228.539062 199.140625 223.449219 194.386719 222.816406 191.851562 C 222.496094 189.632812 231.085938 196.289062 230.132812 195.023438 C 229.179688 193.753906 223.769531 188.367188 224.085938 186.148438 C 224.40625 183.609375 226.632812 186.464844 228.859375 188.046875 C 231.085938 189.632812 232.039062 191.851562 234.582031 194.703125 C 237.128906 197.242188 239.035156 198.507812 245.082031 203.261719 C 251.441406 208.019531 248.898438 205.164062 246.035156 201.359375 C 242.855469 197.558594 242.855469 195.972656 244.445312 197.242188 C 246.355469 198.507812 264.484375 214.039062 257.804688 207.699219 Z M 257.804688 207.699219 " fill-opacity="1" fill-rule="evenodd"/></g></svg>